<?xml version="1.0" encoding="UTF-8"?>
<svg version="1.1" xmlns="http://www.w3.org/2000/svg" width="542" height="542">
<path d="M0 0 C178.86 0 357.72 0 542 0 C542 178.86 542 357.72 542 542 C363.14 542 184.28 542 0 542 C0 363.14 0 184.28 0 0 Z " fill="#FEFEFE" transform="translate(0,0)"/>
<path d="M0 0 C84.48 0 168.96 0 256 0 C256 178.86 256 357.72 256 542 C77.14 542 -101.72 542 -286 542 C-286 457.19 -286 372.38 -286 285 C-285.67 285 -285.34 285 -285 285 C-284.96559814 285.56058105 -284.93119629 286.12116211 -284.89575195 286.69873047 C-283.47080285 308.58329759 -280.02692219 330.18018014 -273 351 C-272.73380859 351.80759766 -272.46761719 352.61519531 -272.19335938 353.44726562 C-258.85515695 393.5220905 -237.23706014 428.71118839 -208 459 C-207.45053711 459.57669434 -206.90107422 460.15338867 -206.33496094 460.74755859 C-198.94885452 468.48675909 -191.20902116 475.34025907 -182.64941406 481.75634766 C-181.12444203 482.90617115 -179.619807 484.08283435 -178.1171875 485.26171875 C-125.31180198 526.22634233 -53.46167587 546.46027805 13.00878906 538.12426758 C16.22063089 537.64173587 19.40951487 537.07948426 22.59716797 536.45751953 C25.20521754 535.96092485 27.81939083 535.53742572 30.44140625 535.12109375 C42.16335455 533.20959609 53.37903678 530.42860494 64.66650391 526.74707031 C66.84512311 526.04958394 69.03171861 525.40401076 71.23046875 524.7734375 C118.53898556 510.74588008 163.97409025 477.76971863 194 439 C194.78632813 438.01902344 195.57265625 437.03804688 196.3828125 436.02734375 C217.72970722 409.21304729 234.01959878 377.0791843 243 344 C243.57621094 342.15341797 243.57621094 342.15341797 244.1640625 340.26953125 C258.93009534 291.30276058 256.70936906 234.0583666 240 186 C239.57748803 184.69854458 239.15695839 183.39644414 238.73828125 182.09375 C226.47724181 144.76149557 204.99359873 111.34203012 178 83 C177.42975098 82.40106934 176.85950195 81.80213867 176.27197266 81.18505859 C168.22627216 72.7973563 159.94873493 65.15408271 150.62158203 58.21582031 C149.09369672 57.07025138 147.59080686 55.89156083 146.08984375 54.7109375 C138.22993803 48.59167115 129.89248045 43.41220777 121.31591797 38.36425781 C119.81876749 37.48231844 118.32531301 36.59406105 116.83642578 35.69824219 C82.21150659 14.91849165 40.18875216 3.32093098 0 1 C0 0.67 0 0.34 0 0 Z " fill="#FEFEFE" transform="translate(286,0)"/>
<path d="M0 0 C83.16 0 166.32 0 252 0 C252 0.33 252 0.66 252 1 C251.31824707 1.05945801 250.63649414 1.11891602 249.93408203 1.18017578 C214.73334664 4.36956329 178.2427466 12.82763612 147 30 C146.06397949 30.51433594 145.12795898 31.02867188 144.16357422 31.55859375 C121.7597234 44.01356715 101.58125344 58.30278857 83 76 C82.40106934 76.57024902 81.80213867 77.14049805 81.18505859 77.72802734 C72.28652851 86.26372704 64.3391003 95.09992999 57 105 C56.05391269 106.25170079 55.1072881 107.50299565 54.16015625 108.75390625 C48.29334474 116.5612862 42.91020357 124.5498285 38 133 C37.43031494 133.96317139 37.43031494 133.96317139 36.84912109 134.94580078 C14.96226296 172.09969004 2.20227596 214.83829286 1 258 C0.67 258 0.34 258 0 258 C0 172.86 0 87.72 0 0 Z " fill="#FEFEFE" transform="translate(0,0)"/>
<path d="M0 0 C0.86463867 0.11827148 1.72927734 0.23654297 2.62011719 0.35839844 C31.12136453 4.34026485 60.51045235 13.16770737 85.90722656 26.87109375 C88.21873559 28.11799269 90.54310766 29.33920456 92.8671875 30.5625 C114.33728962 41.98980368 133.5042472 56.13048252 151 73 C151.64259766 73.61536621 152.28519531 74.23073242 152.94726562 74.86474609 C161.568625 83.15753497 169.58041938 91.60296745 176.69238281 101.23046875 C178.05983407 103.08097038 179.44692835 104.91563802 180.8359375 106.75 C186.70500084 114.55805764 192.08885416 122.5482069 197 131 C197.37979004 131.64211426 197.75958008 132.28422852 198.15087891 132.94580078 C234.04904314 193.88448876 242.75034526 267.22772278 226.3125 335.625 C214.37303853 381.45446576 189.73086949 423.12270581 157 457 C156.41814941 457.60908203 155.83629883 458.21816406 155.23681641 458.84570312 C147.53459036 466.88991575 139.5492003 474.11318961 130.62451172 480.77685547 C129.12933785 481.90261758 127.65903307 483.06121027 126.19140625 484.22265625 C104.73361124 500.99321661 79.70998107 514.11816274 54 523 C53.23381348 523.26506348 52.46762695 523.53012695 51.67822266 523.80322266 C36.37087848 529.01884886 20.90491256 532.37308201 5 535.1875 C3.58509277 535.43814209 3.58509277 535.43814209 2.14160156 535.69384766 C-9.92627214 537.76195662 -21.7764649 538.24116634 -34 538.25 C-34.84047882 538.25067474 -35.68095764 538.25134949 -36.54690552 538.25204468 C-75.0983224 538.20310937 -113.02282827 530.39969178 -148 514 C-149.41466553 513.3488623 -149.41466553 513.3488623 -150.85791016 512.68457031 C-177.68571951 500.24771958 -201.76000107 483.51693514 -223 463 C-223.93126709 462.101604 -223.93126709 462.101604 -224.88134766 461.18505859 C-232.79078035 453.51320586 -240.2585334 445.73754331 -247 437 C-247.78503906 436.0203125 -248.57007813 435.040625 -249.37890625 434.03125 C-270.69267456 407.26609981 -287.14930492 375.06941525 -296 342 C-296.41112099 340.53375954 -296.82260943 339.06762208 -297.234375 337.6015625 C-315.93541641 269.98798179 -305.85749609 195.64107785 -271.52319336 134.6550293 C-254.12197781 104.57924416 -230.62292307 75.95972636 -202.60546875 55.19970703 C-201.08324003 54.06220218 -199.58756382 52.8894151 -198.09375 51.71484375 C-143.19567499 8.95768917 -68.71965392 -10.09838549 0 0 Z M-189 56 C-189.57298828 56.41604492 -190.14597656 56.83208984 -190.73632812 57.26074219 C-198.33135691 62.80960157 -205.29123365 68.86264132 -212.125 75.3125 C-214.3290717 77.3728279 -216.54597664 79.33687367 -218.875 81.25 C-221.93714573 83.83298356 -224.49277106 86.71905917 -227.078125 89.7734375 C-228.40565247 91.31142664 -229.77347943 92.81521393 -231.171875 94.2890625 C-248.22187354 112.28628318 -261.49863595 133.62870009 -272 156 C-272.32564941 156.67933594 -272.65129883 157.35867187 -272.98681641 158.05859375 C-294.78169899 203.7098934 -302.63041615 256.32208516 -294.43115234 306.30859375 C-294.01610859 308.89944446 -293.66835037 311.4916756 -293.33203125 314.09375 C-287.7044306 353.87807656 -268.82401942 394.68212763 -244 426 C-243.35675781 426.8353125 -242.71351563 427.670625 -242.05078125 428.53125 C-237.51752918 434.34264008 -232.63943936 439.75805336 -227.61328125 445.140625 C-225.80590247 447.11820537 -224.08608028 449.0866654 -222.39453125 451.15625 C-220.46827842 453.44387163 -218.65418745 455.34231006 -216.375 457.25 C-214.09945359 459.18063919 -211.87227924 461.12119329 -209.70703125 463.17578125 C-191.22893831 480.67983518 -169.06466905 494.38867786 -146 505 C-145.2157666 505.3619043 -144.4315332 505.72380859 -143.62353516 506.09667969 C-109.92428041 521.47470957 -74.51677262 529.24366093 -37.5 529.1875 C-36.70153656 529.18656342 -35.90307312 529.18562683 -35.08041382 529.18466187 C-10.38596846 529.12193934 13.20596926 525.85224921 37 519 C37.86181885 518.75386963 38.7236377 518.50773926 39.61157227 518.25415039 C77.50252036 507.13340578 112.78103366 486.80508118 141.30078125 459.5234375 C144 457 144 457 146.66015625 454.8828125 C148.75848907 453.19433768 150.40244889 451.55623902 152.125 449.5 C154.16601286 447.09906659 156.22709904 444.76182296 158.40234375 442.48046875 C205.04455694 393.50956944 226.10132197 325.33668117 225.25390625 258.8125 C224.388421 223.67118926 215.89350104 189.78971401 201 158 C200.66500488 157.28166992 200.33000977 156.56333984 199.98486328 155.82324219 C192.27752235 139.47247711 183.03693461 124.30745706 172 110 C171.31164062 109.09765625 170.62328125 108.1953125 169.9140625 107.265625 C165.43305543 101.52262002 160.58095053 96.17931026 155.61328125 90.859375 C153.80477005 88.88055557 152.08351719 86.91057078 150.390625 84.83984375 C148.48228664 82.5729124 146.69743155 80.69830418 144.4375 78.8125 C142.0443346 76.78341542 139.72018862 74.73304366 137.44921875 72.56640625 C108.23782183 44.72871264 71.27289591 27.36698962 33 16 C32.28972656 15.78859375 31.57945312 15.5771875 30.84765625 15.359375 C21.0217766 12.47971126 11.11838336 10.4827512 1 9 C0.2997168 8.89413574 -0.40056641 8.78827148 -1.12207031 8.67919922 C-66.64882567 -0.77379178 -135.72416293 16.97904906 -189 56 Z " fill="#070707" transform="translate(306,2)"/>
<path d="M0 0 C2.625 -0.1875 2.625 -0.1875 5 0 C13.48698616 14.8261601 21.23700598 30.01888203 29.02764893 45.21711731 C32.13192168 51.26828978 35.2859532 57.29216457 38.46484375 63.30444336 C41.66551216 69.35808852 44.83582922 75.42720308 48 81.5 C54.52986027 94.02277969 61.06316324 106.54239431 67.74609375 118.984375 C68.0754744 119.59787308 68.40485504 120.21137115 68.74421692 120.84346008 C70.37612191 123.88232076 72.01022277 126.91994826 73.64770508 129.95581055 C85 151.06537504 85 151.06537504 85 154 C85.66 154 86.32 154 87 154 C87.27005859 153.13012451 87.54011719 152.26024902 87.81835938 151.36401367 C88.95931916 148.11581433 90.31104683 145.22297045 91.90625 142.17578125 C92.48004395 141.07459961 93.05383789 139.97341797 93.64501953 138.83886719 C94.25716309 137.67516602 94.86930664 136.51146484 95.5 135.3125 C96.13822585 134.09166355 96.77608034 132.87063289 97.41357422 131.64941406 C99.2699472 128.09656317 101.1342872 124.54795523 103 121 C103.71397949 119.64044189 103.71397949 119.64044189 104.44238281 118.25341797 C106.4603111 114.41168149 108.4825356 110.5722417 110.5078125 106.734375 C113.35589679 101.33196532 116.17774853 95.91593717 119 90.5 C123.05214896 82.72470624 127.12191341 74.95908037 131.2109375 67.203125 C134.4908638 60.9775324 137.74761463 54.74001769 141 48.5 C142.51763428 45.59051691 144.03555952 42.68118594 145.55371094 39.77197266 C146.48449373 37.98802469 147.41486541 36.20386213 148.34472656 34.41943359 C154.38172881 22.84202861 160.60709496 11.38481174 167 0 C168.65 0 170.3 0 172 0 C173.68880407 4.52559565 174.43153125 8.68425452 174.88208008 13.48754883 C174.98766251 14.58218287 174.98766251 14.58218287 175.09537792 15.69893074 C175.32690396 18.11770621 175.54827943 20.53729607 175.76953125 22.95703125 C175.93187987 24.67685792 176.09481585 26.39662924 176.25830078 28.11634827 C176.69461686 32.72611802 177.12191022 37.33668296 177.54730606 41.94747162 C177.90144064 45.77337205 178.26094439 49.59876 178.62047863 53.42415619 C180.97973618 78.53381914 183.24750659 103.65108914 185.40625 128.77880859 C186.54286011 141.98789046 187.74199009 155.18550899 189.1887207 168.36474609 C189.84873188 174.54985452 190.46611023 180.77730593 190 187 C187.84267167 189.15732833 183.05201247 188.18520919 180.0625 188.1875 C179.22525391 188.19974609 178.38800781 188.21199219 177.52539062 188.22460938 C176.72423828 188.22654297 175.92308594 188.22847656 175.09765625 188.23046875 C174.36039307 188.23457764 173.62312988 188.23868652 172.86352539 188.24291992 C171 188 171 188 169 186 C168.56535339 183.63070679 168.56535339 183.63070679 168.30151367 180.60302734 C168.19750244 179.46061584 168.09349121 178.31820435 167.98632812 177.14117432 C167.88126953 175.88544617 167.77621094 174.62971802 167.66796875 173.3359375 C167.55106689 172.02413513 167.43416504 170.71233276 167.3137207 169.36077881 C167.06051162 166.5186428 166.81299665 163.67608886 166.56991577 160.83306885 C166.18804686 156.36691981 165.79378504 151.90191967 165.39770508 147.43701172 C164.85618887 141.31848962 164.32022232 135.19950783 163.7890625 129.08007812 C162.71009215 116.6496118 161.6141768 104.2206722 160.51138306 91.79229736 C160.19132365 88.16829486 159.87597558 84.54390528 159.5612793 80.91943359 C159.36779826 78.71971579 159.17420157 76.52000815 158.98046875 74.3203125 C158.89531006 73.32545837 158.81015137 72.33060425 158.72241211 71.30560303 C158.64152344 70.39538391 158.56063477 69.48516479 158.47729492 68.54736328 C158.4087883 67.76048126 158.34028168 66.97359924 158.2696991 66.16287231 C158.0054656 64.04383181 157.56385839 62.0576906 157 60 C156.59797363 60.77899658 156.19594727 61.55799316 155.78173828 62.3605957 C142.29058108 88.49417968 142.29058108 88.49417968 136.9375 98.625 C132.35055507 107.30646783 127.83212282 116.02288098 123.31665039 124.74169922 C119.02990689 133.01766518 114.7324263 141.28789039 110.41210938 149.54638672 C107.85714666 154.43142755 105.31637947 159.32312545 102.796875 164.2265625 C102.00047607 165.77005371 102.00047607 165.77005371 101.18798828 167.34472656 C100.18206041 169.29498848 99.1801076 171.2473085 98.18310547 173.20214844 C95.14665822 179.07509475 91.78716922 184.58051605 88 190 C85.73095703 189.86645508 85.73095703 189.86645508 83 189 C81.10888672 186.5144043 81.10888672 186.5144043 79.3046875 183.13671875 C78.96960175 182.51874924 78.63451599 181.90077972 78.28927612 181.26408386 C77.1719935 179.18641342 76.08410172 177.09515945 75 175 C74.61622192 174.26654358 74.23244385 173.53308716 73.83703613 172.77740479 C70.89131065 167.1435275 68.00354943 161.48091794 65.125 155.8125 C63.44184159 152.50562315 61.75667745 149.19977397 60.0703125 145.89453125 C59.65389496 145.07798065 59.23747742 144.26143005 58.80844116 143.4201355 C55.03378005 136.03403349 51.17286382 128.69469672 47.29931641 121.36010742 C44.20868844 115.50686212 41.1651913 109.62958942 38.125 103.75 C36.93248168 101.44781823 35.7397696 99.14573682 34.546875 96.84375 C33.95841797 95.70808594 33.36996094 94.57242188 32.76367188 93.40234375 C29.97158985 88.01606813 27.17589381 82.63169868 24.375 77.25 C23.89047363 76.31639648 23.40594727 75.38279297 22.90673828 74.42089844 C20.36990392 69.55139429 17.7618372 64.74569209 15 60 C13.42658488 69.34388619 12.40015942 78.66479442 11.6328125 88.10546875 C11.51245549 89.54341269 11.39164518 90.98131876 11.27041626 92.41918945 C11.01567217 95.4482494 10.76337675 98.47749839 10.51306152 101.50692749 C9.92745703 108.58631618 9.32454844 115.66424185 8.72315979 122.74230385 C8.5239431 125.08779722 8.32511526 127.43332332 8.12634277 129.77885437 C7.11550986 141.6973742 6.09605588 153.61499541 4.99456787 165.52554321 C4.83243872 167.29020999 4.67342614 169.05516608 4.51763916 170.82040405 C4.30640224 173.20793341 4.08457556 175.5942221 3.859375 177.98046875 C3.74045898 179.27879639 3.62154297 180.57712402 3.49902344 181.91479492 C3 185 3 185 1 188 C-0.86352539 188.35644531 -0.86352539 188.35644531 -3.09765625 188.328125 C-3.89880859 188.32296875 -4.69996094 188.3178125 -5.52539062 188.3125 C-6.36263672 188.291875 -7.19988281 188.27125 -8.0625 188.25 C-8.90361328 188.24484375 -9.74472656 188.2396875 -10.61132812 188.234375 C-16.84600765 188.15399235 -16.84600765 188.15399235 -18 187 C-17.94542416 184.48949061 -17.82539551 182.01660154 -17.65367126 179.51327515 C-17.60460882 178.74853359 -17.55554638 177.98379203 -17.50499719 177.19587648 C-16.96676898 169.04973667 -16.26744265 160.9187477 -15.54125977 152.78759766 C-15.39638546 151.14467519 -15.25170768 149.50173539 -15.10720825 147.85877991 C-14.71925335 143.45659961 -14.32796641 139.05472241 -13.93553281 134.65293932 C-13.69001908 131.89849971 -13.44506869 129.14401051 -13.2002697 126.38950729 C-12.43278847 117.75612822 -11.66315006 109.12294539 -10.89046055 100.49003088 C-10.00054656 90.54703214 -9.11804316 80.60341119 -8.24173695 70.65920413 C-7.56152406 62.94538461 -6.87476453 55.23216548 -6.18300098 47.5193733 C-5.77078428 42.92170454 -5.36137868 38.32382636 -4.95883369 33.72529984 C-4.58137105 29.41529601 -4.19582051 25.10609305 -3.80394363 20.79737663 C-3.66148017 19.21535926 -3.52196626 17.63307315 -3.38558388 16.05051994 C-3.19937318 13.89499135 -3.00266903 11.74067385 -2.80323792 9.58633423 C-2.69576516 8.3796641 -2.58829241 7.17299397 -2.4775629 5.92975807 C-2 3 -2 3 0 0 Z " fill="#030303" transform="translate(184,151)"/>
<path d="M0 0 C3.43391988 1.14463996 3.54397409 1.4613492 5.08129883 4.51904297 C5.46212112 5.26427216 5.84294342 6.00950134 6.23530579 6.77731323 C6.63847519 7.59072174 7.04164459 8.40413025 7.45703125 9.2421875 C7.88247726 10.0803299 8.30792328 10.91847229 8.7462616 11.78201294 C10.11099941 14.47508015 11.46211524 17.17471148 12.8125 19.875 C14.15209503 22.53246298 15.49447225 25.18850496 16.83737183 27.84429932 C17.70301234 29.55642158 18.5675501 31.26910188 19.43093872 32.98236084 C22.49937433 39.05827025 25.66565087 45.06487561 29 51 C34.15063618 43.22814898 38.22684018 34.92770951 42.4375 26.625 C53.75477688 4.31076978 53.75477688 4.31076978 57 0 C57.66 0 58.32 0 59 0 C60.44027754 10.086565 61.56960935 20.16475585 62.43261719 30.31616211 C62.62521062 32.56495923 62.82798782 34.81269197 63.03125 37.06054688 C63.82082504 46.07196905 64.17865634 54.94717646 64 64 C62.00045254 64.04254356 59.99958364 64.04080783 58 64 C55.91422264 61.91422264 56.48377883 57.58056551 56.28125 54.6953125 C56.21844849 53.86039276 56.15564697 53.02547302 56.09094238 52.16525269 C55.88962477 49.48547 55.69422504 46.80530549 55.5 44.125 C55.30552856 41.45185799 55.10968762 38.77885787 54.90905762 36.10617065 C54.78404457 34.44036573 54.66259514 32.77428879 54.54504395 31.10794067 C54.30398776 27.89153429 54.02444088 25.07332263 53 22 C52.27466064 23.42094971 52.27466064 23.42094971 51.53466797 24.87060547 C49.71545166 28.43215532 47.89158551 31.9913075 46.06640625 35.54980469 C45.28163498 37.08139518 44.49807535 38.6136072 43.71582031 40.14648438 C39.40218314 48.5972416 35.06860459 56.96790673 30 65 C25.74741285 61.39640206 23.68469403 56.97154057 21.234375 52.078125 C20.79611389 51.21813904 20.35785278 50.35815308 19.90631104 49.47210693 C18.51356364 46.73504526 17.13166984 43.99266752 15.75 41.25 C14.80539916 39.38896153 13.8600945 37.52828012 12.9140625 35.66796875 C10.60119941 31.11607607 8.29805242 26.55938665 6 22 C4.37907201 29.92266876 3.49435535 37.75020303 2.9375 45.8125 C2.7823523 47.98585006 2.6248757 50.15903538 2.46484375 52.33203125 C2.399021 53.27796143 2.33319824 54.2238916 2.26538086 55.19848633 C1.98438441 58.16484715 1.52202843 61.0672773 1 64 C-1.31 64 -3.62 64 -6 64 C-5.34687168 51.34993565 -4.36935183 38.73786573 -3.27050781 26.11914062 C-2.9956315 22.94962824 -2.72819525 19.77953788 -2.4609375 16.609375 C-2.28690612 14.59371129 -2.1124438 12.57808473 -1.9375 10.5625 C-1.85830322 9.61479736 -1.77910645 8.66709473 -1.69750977 7.69067383 C-1.58234009 6.39166138 -1.58234009 6.39166138 -1.46484375 5.06640625 C-1.399021 4.30271729 -1.33319824 3.53902832 -1.26538086 2.75219727 C-1 1 -1 1 0 0 Z " fill="#0B0B0B" transform="translate(146,380)"/>
<path d="M0 0 C4.33283708 1.08320927 5.30664044 1.94986034 8.3125 5.0625 C9.38951172 6.16271484 9.38951172 6.16271484 10.48828125 7.28515625 C12.47905915 9.43693018 14.41712844 11.61258407 16.33984375 13.82421875 C19.88085511 17.89292891 23.54410419 21.83166431 27.25 25.75 C33.56830162 32.43996642 39.78043412 39.21501904 46 46 C46.33 30.82 46.66 15.64 47 0 C49.31 0 51.62 0 54 0 C54 20.79 54 41.58 54 63 C49.7788992 61.9447248 49.28336729 61.5921312 46.7109375 58.4296875 C44.3215303 55.57181901 41.90826524 52.78022589 39.3515625 50.0703125 C38.43938965 49.10303223 38.43938965 49.10303223 37.50878906 48.11621094 C36.88713867 47.45911133 36.26548828 46.80201172 35.625 46.125 C30.00062287 40.15340508 24.47024008 34.11379773 19 28 C15.37 24.04 11.74 20.08 8 16 C7.67 31.51 7.34 47.02 7 63 C4.69 63 2.38 63 0 63 C0 42.21 0 21.42 0 0 Z " fill="#0D0D0D" transform="translate(292,381)"/>
<path d="M0 0 C2.31 0 4.62 0 7 0 C7.0093457 1.23041016 7.01869141 2.46082031 7.02832031 3.72851562 C7.06838225 8.32099778 7.13418566 12.91282142 7.20751953 17.50488281 C7.23563547 19.48721822 7.25689638 21.46966379 7.27099609 23.45214844 C7.29255592 26.31241875 7.33927215 29.1713777 7.390625 32.03125 C7.39185364 32.90865845 7.39308228 33.78606689 7.39434814 34.69006348 C7.54662751 41.17912447 8.90474376 46.73739472 13.48223877 51.56237793 C18.35327499 55.80108814 22.28943265 56.27567833 28.4921875 56.23046875 C31.820917 55.92455747 34.16808914 54.72677492 37 53 C37.99 52.67 38.98 52.34 40 52 C41.12085312 49.6569191 41.12085312 49.6569191 42 47 C42.3427597 46.37534851 42.68551941 45.75069702 43.03866577 45.1071167 C44.10638252 42.76682368 44.27366142 41.15918636 44.31884766 38.59863281 C44.33871735 37.7380426 44.35858704 36.87745239 44.37905884 35.99078369 C44.39638565 34.61089264 44.39638565 34.61089264 44.4140625 33.203125 C44.43342865 32.25435486 44.4527948 31.30558472 44.4727478 30.32806396 C44.53245659 27.30213367 44.57889433 24.27616516 44.625 21.25 C44.66318777 19.19659813 44.70223997 17.14321214 44.7421875 15.08984375 C44.83815108 10.06002504 44.92221446 5.03013135 45 0 C47.31 0 49.62 0 52 0 C52.12438696 6.08309628 52.21470951 12.16543851 52.2746582 18.24951172 C52.29967089 20.31539826 52.33369236 22.38119748 52.37719727 24.44677734 C52.43843558 27.43088424 52.4663426 30.41381287 52.48828125 33.3984375 C52.51408768 34.30927094 52.5398941 35.22010437 52.56648254 36.15853882 C52.56997333 44.29410945 49.77732808 50.42914962 44.8125 56.8125 C37.97305515 62.13206822 31.73900796 64.90495161 22.95703125 64.4765625 C14.89669241 63.17753828 9.47900522 59.16081163 4.375 52.96484375 C-0.29584294 46.29031534 -0.14459774 39.32021763 -0.09765625 31.4453125 C-0.0962413 30.54376434 -0.09482635 29.64221619 -0.09336853 28.71334839 C-0.0877974 25.850531 -0.07525026 22.98779352 -0.0625 20.125 C-0.05748127 18.17708447 -0.05291901 16.2291677 -0.04882812 14.28125 C-0.03783742 9.52080282 -0.02059277 4.76041493 0 0 Z " fill="#060606" transform="translate(224,381)"/>
<path d="M0 0 C14.85 0 29.7 0 45 0 C45 1.98 45 3.96 45 6 C38.73 6 32.46 6 26 6 C26 24.81 26 43.62 26 63 C23.69 63 21.38 63 19 63 C19 44.19 19 25.38 19 6 C12.73 6 6.46 6 0 6 C0 4.02 0 2.04 0 0 Z " fill="#030303" transform="translate(358,381)"/>
<path d="M0 0 C2.8125 1.3125 2.8125 1.3125 5 3 C5.8971875 3.5878125 5.8971875 3.5878125 6.8125 4.1875 C8.81022885 7.23666508 8.5021559 10.52562404 8 14 C6.3185707 17.86728738 4.84766221 19.41933877 1 21 C-3.61486808 21.7099797 -7.00071966 21.62455021 -11 19.125 C-14.32530877 15.59185943 -14.33074386 12.95338737 -14.29296875 8.26171875 C-13.86344199 4.9457722 -12.39075646 3.25012373 -10 1 C-6.80912749 -0.59543625 -3.47229758 -0.38061724 0 0 Z " fill="#050505" transform="translate(273,123)"/>
<path d="M0 0 C3.0625 2.4375 3.0625 2.4375 5 5 C5.33 5.33 5.66 5.66 6 6 C6.38270052 10.9751068 6.17088582 14.06372795 3 18 C0.09799637 20.33772514 -1.72300894 20.96474659 -5.4375 21.4375 C-9.63446239 20.92208357 -11.7393054 19.63960991 -15 17 C-16.72869779 13.54260443 -16.48966895 9.78024432 -16 6 C-11.95035341 -0.47943454 -7.26674713 -1.06259038 0 0 Z " fill="#050505" transform="translate(275,175)"/>
<path d="M0 0 C2.125 0.375 2.125 0.375 4 1 C4.5625 2.9375 4.5625 2.9375 5 5 C4 6 4 6 1.4375 6.0625 C0.2309375 6.0315625 0.2309375 6.0315625 -1 6 C-1.625 4.125 -1.625 4.125 -2 2 C-1.34 1.34 -0.68 0.68 0 0 Z " fill="#1D1D1D" transform="translate(255,368)"/>
<path d="M0 0 C1.67542976 0.28604898 3.34385343 0.61781233 5 1 C4.67 2.65 4.34 4.3 4 6 C2.35 5.67 0.7 5.34 -1 5 C-1 1 -1 1 0 0 Z " fill="#191919" transform="translate(242,368)"/>
</svg>
