<?xml version="1.0" encoding="UTF-8"?>
<svg version="1.1" xmlns="http://www.w3.org/2000/svg" width="446" height="170">
<path d="M0 0 C54.78 0 109.56 0 166 0 C166 56.1 166 112.2 166 170 C111.22 170 56.44 170 0 170 C0 113.9 0 57.8 0 0 Z M21 21 C19.26240523 33.95001817 18.01437451 46.9263954 16.8359375 59.9375 C16.63714411 62.11508352 16.43821788 64.29265491 16.23916626 66.47021484 C15.82560665 71.00162813 15.41406189 75.53321879 15.00390625 80.06494141 C14.47921177 85.85968232 13.94875783 91.65387985 13.41673851 97.44795227 C13.00584442 101.93106256 12.59831463 106.41447393 12.19176102 110.89797974 C11.99751196 113.03502502 11.80215101 115.17196956 11.60563278 117.30880737 C11.33176423 120.2915064 11.06252161 123.2745891 10.79443359 126.2578125 C10.71341904 127.12963669 10.63240448 128.00146088 10.54893494 128.89970398 C10.10041911 133.95449134 9.83517983 138.92452547 10 144 C11.08552366 145.31262571 11.08552366 145.31262571 13.72265625 145.09765625 C14.82480469 145.08605469 15.92695313 145.07445312 17.0625 145.0625 C18.16722656 145.05347656 19.27195312 145.04445313 20.41015625 145.03515625 C21.26480469 145.02355469 22.11945312 145.01195312 23 145 C25.28382256 141.32487859 25.52058651 137.58380908 25.85375977 133.37329102 C25.9542009 132.22866394 25.9542009 132.22866394 26.05667114 131.06091309 C26.27584157 128.54250048 26.48354917 126.02327561 26.69140625 123.50390625 C26.8423002 121.75033334 26.99399939 119.99682955 27.14646912 118.24339294 C27.54599511 113.62797008 27.93619746 109.01180882 28.32397461 104.39538574 C28.94583224 97.00979202 29.5813602 89.62536596 30.21772575 82.24101067 C30.43841705 79.66381358 30.65489039 77.08628858 30.8707428 74.50868225 C31.0056113 72.92448121 31.14057046 71.34028788 31.27563477 69.75610352 C31.33435257 69.04165573 31.39307037 68.32720795 31.4535675 67.59111023 C31.7630639 64.00007215 32.20634899 60.51727402 33 57 C33.55349121 58.08192627 34.10698242 59.16385254 34.67724609 60.27856445 C36.78226226 64.39257396 38.8887411 68.50583321 40.99560547 72.61889648 C41.89768131 74.38041909 42.79938924 76.14213016 43.70068359 77.90405273 C48.88240626 88.03301789 54.1081461 98.13563219 59.42468262 108.1945343 C62.03360339 113.13894263 64.59511661 118.1045313 67.1171875 123.09375 C67.74987085 124.33990933 68.38268103 125.58600428 69.015625 126.83203125 C69.96164931 128.69470332 70.90438407 130.55875326 71.83886719 132.42724609 C72.77686823 134.29992867 73.72704774 136.16598115 74.6796875 138.03125 C75.22351074 139.10955078 75.76733398 140.18785156 76.32763672 141.29882812 C77.98054628 143.96857869 79.36646821 145.34426822 82 147 C85.49675286 143.86751223 87.42528767 140.6710171 89.5390625 136.49609375 C89.86124252 135.86553574 90.18342255 135.23497772 90.5153656 134.58531189 C91.55890884 132.53951708 92.59184463 130.48855726 93.625 128.4375 C94.34995401 127.01273749 95.07578994 125.58842339 95.80249023 124.16455078 C97.23299686 121.36114021 98.66066657 118.55631585 100.08642578 115.75048828 C102.36805932 111.26870311 104.70423372 106.8168771 107.0625 102.375 C110.00660822 96.81553806 112.91601761 91.23892402 115.80078125 85.6484375 C116.13588211 84.99922333 116.47098297 84.35000916 116.8162384 83.68112183 C118.48793479 80.44141873 120.15754534 77.2006605 121.82446289 73.95849609 C122.44283005 72.75876791 123.06123654 71.55905999 123.6796875 70.359375 C124.22351074 69.30202148 124.76733398 68.24466797 125.32763672 67.15527344 C127.14635874 63.72386272 129.05730677 60.36253686 131 57 C131.5882352 62.72867319 132.17083753 68.45790253 132.75 74.1875 C132.83859283 75.06304535 132.92718567 75.9385907 133.01846313 76.84066772 C134.11819334 87.74499835 135.16395308 98.65248702 136.12109375 109.5703125 C136.21115692 110.59705582 136.30122009 111.62379913 136.39401245 112.68165588 C136.8331655 117.70741064 137.26598659 122.73364556 137.69238281 127.76049805 C137.85087432 129.59684565 138.00940115 131.43319021 138.16796875 133.26953125 C138.23761337 134.11150055 138.307258 134.95346985 138.37901306 135.82095337 C138.65972682 139.04812096 138.97155204 141.91465611 140 145 C142.14576637 145.02685938 144.29162645 145.04633088 146.4375 145.0625 C147.63246094 145.07410156 148.82742187 145.08570313 150.05859375 145.09765625 C152.88873341 145.33901792 152.88873341 145.33901792 154 144 C153.96063084 141.44279435 153.85125587 138.92457627 153.68945312 136.37402344 C153.64141792 135.57292019 153.59338272 134.77181694 153.54389191 133.94643784 C152.89302011 123.61883054 151.92554711 113.31843905 150.96875 103.015625 C150.77057371 100.85856096 150.57262063 98.70147639 150.37487793 96.54437256 C149.9633873 92.06324482 149.54969205 87.58232813 149.13427734 83.1015625 C148.60261943 77.36572262 148.07588481 71.62944333 147.55068207 65.89300919 C147.14402322 61.45591689 146.73515414 57.01903049 146.32557678 52.58220673 C146.13042039 50.46599571 145.93586418 48.34972926 145.7419281 46.23340607 C145.47142108 43.28593014 145.19802372 40.33873634 144.92382812 37.39160156 C144.8448378 36.52507965 144.76584747 35.65855774 144.6844635 34.76577759 C144.28187392 30.47247116 143.77817093 26.24578911 143 22 C140.03 22 137.06 22 134 22 C132.58272411 24.68718018 131.16608545 27.37469246 129.75 30.0625 C129.07880127 31.33613403 129.07880127 31.33613403 128.39404297 32.63549805 C125.94536855 37.28696724 123.5066527 41.94328815 121.0859375 46.609375 C116.2545953 55.91831178 111.37533864 65.18966269 106.3125 74.375 C101.38154537 83.34121152 96.62328951 92.39296409 91.92318726 101.48175049 C91.14314275 102.98989471 90.36175691 104.49734594 89.57901001 106.00408936 C88.48059503 108.12029525 87.38784584 110.23932378 86.296875 112.359375 C85.96312363 113.00103607 85.62937225 113.64269714 85.2855072 114.30380249 C83.55480465 117.48795814 83.55480465 117.48795814 83 121 C82.34 121 81.68 121 81 121 C80.72542969 120.12110107 80.45085937 119.24220215 80.16796875 118.33666992 C79.08618544 115.24621579 77.83369447 112.50693695 76.3125 109.61328125 C75.78390381 108.60249512 75.25530762 107.59170898 74.71069336 106.55029297 C74.14616455 105.48182129 73.58163574 104.41334961 73 103.3125 C72.41549072 102.19762207 71.83098145 101.08274414 71.22875977 99.93408203 C69.49022481 96.62039309 67.74582752 93.30985136 66 90 C65.11303637 88.31393088 64.22629262 86.62774606 63.33984375 84.94140625 C62.13991714 82.6595707 60.93917949 80.37818223 59.73583984 78.09814453 C57.52186133 73.90216197 55.3215009 69.69954916 53.13671875 65.48828125 C47.98920741 55.56957794 42.78805457 45.6859878 37.4375 35.875 C36.93686035 34.95678467 36.4362207 34.03856934 35.92041016 33.0925293 C35.00657305 31.42415785 34.08321802 29.76094436 33.14794922 28.10449219 C32 26 32 26 30.66015625 22.8828125 C29.20470498 20.79990624 29.20470498 20.79990624 27.08787537 20.81613159 C24.04393768 20.9080658 24.04393768 20.9080658 21 21 Z " fill="#000000" transform="translate(0,0)"/>
<path d="M0 0 C1.9375 0.9375 1.9375 0.9375 3.3125 3.3125 C3.51875 4.17875 3.725 5.045 3.9375 5.9375 C2.9475 7.4225 2.9475 7.4225 1.9375 8.9375 C-1.125 9.1875 -1.125 9.1875 -4.0625 8.9375 C-5.0625 7.9375 -5.0625 7.9375 -5.3125 5 C-5.23 3.989375 -5.1475 2.97875 -5.0625 1.9375 C-2.0625 -0.0625 -2.0625 -0.0625 0 0 Z " fill="#000000" transform="translate(214.0625,7.0625)"/>
<path d="M0 0 C4.55555556 0.55555556 4.55555556 0.55555556 6 2 C6.1875 4.4375 6.1875 4.4375 6 7 C4 9 4 9 1.5 9.25 C-1 9 -1 9 -3 7 C-2.67028521 3.70285207 -2.3773161 2.3773161 0 0 Z " fill="#000000" transform="translate(230,7)"/>
<path d="M0 0 C6.20701765 5.19362702 11.96944091 10.59942417 17.2578125 16.734375 C20.86545622 20.87715571 24.60009921 24.88492155 28.375 28.875 C33.18761277 33.9837374 37.94635316 39.12803872 42.6171875 44.3671875 C46.34151809 48.48226753 50.14636845 52.52220173 53.95336914 56.56079102 C54.80209595 57.46462524 54.80209595 57.46462524 55.66796875 58.38671875 C56.16578857 58.91483154 56.6636084 59.44294434 57.17651367 59.98706055 C59.84831509 62.93645172 62.42053968 65.96983629 65 69 C65.01030746 68.16283951 65.02061493 67.32567902 65.03123474 66.46315002 C65.12903782 58.59025264 65.23152725 50.71743342 65.33933926 42.84466648 C65.39460529 38.79678183 65.44803102 34.74889 65.49731445 30.70092773 C65.54490393 26.79757638 65.5972445 22.89431551 65.65294075 18.9910717 C65.67338894 17.49868955 65.69209787 16.00628257 65.70907402 14.51385689 C65.7330638 12.43045151 65.76312519 10.3472186 65.79467773 8.26391602 C65.81022202 7.07588882 65.8257663 5.88786163 65.84178162 4.66383362 C66 2 66 2 67 1 C69.97 1 72.94 1 76 1 C76 31.03 76 61.06 76 92 C75.01 92.495 75.01 92.495 74 93 C73.28585937 92.28457031 72.57171875 91.56914063 71.8359375 90.83203125 C70.01445661 89.00990944 68.18555004 87.19636133 66.3515625 85.38671875 C61.75468243 80.8359392 57.26279092 76.26376971 53.05859375 71.34375 C50.19207637 68.08016285 47.22014302 64.91918139 44.25 61.75 C39.02225843 56.16936861 33.82572945 50.56331687 28.66796875 44.91796875 C26.7998326 42.87478031 24.92808357 40.83549902 23.05078125 38.80078125 C22.5611792 38.26928467 22.07157715 37.73778809 21.56713867 37.19018555 C20.21478639 35.72244719 18.86133825 34.25571876 17.5078125 32.7890625 C14.92500168 29.91659066 12.46555896 26.97315893 10 24 C9.9845388 25.25574074 9.9845388 25.25574074 9.96876526 26.53684998 C9.87096218 34.40974736 9.76847275 42.28256658 9.66066074 50.15533352 C9.60539471 54.20321817 9.55196898 58.25111 9.50268555 62.29907227 C9.45509607 66.20242362 9.4027555 70.10568449 9.34705925 74.0089283 C9.32661106 75.50131045 9.30790213 76.99371743 9.29092598 78.48614311 C9.2669362 80.56954849 9.23687481 82.6527814 9.20532227 84.73608398 C9.18977798 85.92411118 9.1742337 87.11213837 9.15821838 88.33616638 C9 91 9 91 8 92 C6.48071962 92.07179964 4.95832518 92.08392007 3.4375 92.0625 C2.19806641 92.04896484 2.19806641 92.04896484 0.93359375 92.03515625 C-0.02353516 92.01775391 -0.02353516 92.01775391 -1 92 C-1.02312202 80.15234827 -1.04091437 68.30470186 -1.05181217 56.4570322 C-1.05704131 50.95629138 -1.06413951 45.45556595 -1.07543945 39.95483398 C-1.08626725 34.6510344 -1.0922766 29.34724965 -1.09487724 24.04343987 C-1.09673169 22.01514388 -1.10035267 19.98684874 -1.10573006 17.95855904 C-1.11293906 15.12803486 -1.113991 12.29757282 -1.11352539 9.46704102 C-1.11712067 8.61971909 -1.12071594 7.77239716 -1.12442017 6.8993988 C-1.11405216 1.11405216 -1.11405216 1.11405216 0 0 Z " fill="#000000" transform="translate(285,25)"/>
<path d="M0 0 C3.3 0 6.6 0 10 0 C10.00364563 0.72947845 10.00729126 1.45895691 10.01104736 2.21054077 C10.04909649 9.12425593 10.1061391 16.03758918 10.18390274 22.95096397 C10.22321796 26.50427324 10.25548356 30.05734062 10.27099609 33.61083984 C10.28919996 37.7070997 10.33921982 41.80245868 10.390625 45.8984375 C10.39185364 47.1592514 10.39308228 48.42006531 10.39434814 49.71908569 C10.54379884 58.81779364 12.2031883 65.64026412 17.125 73.3125 C23.16926327 78.96257219 28.81611839 81.30407782 37.125 81.5 C44.95256701 81.19403647 51.28684858 79.71315142 57 74 C63.84363482 64.88841643 64.31162989 56.53400731 64.4140625 45.41015625 C64.43342865 44.11049423 64.4527948 42.81083221 64.4727478 41.4717865 C64.52381345 38.03765821 64.5635748 34.60349099 64.60089111 31.16918945 C64.64109231 27.65631685 64.69211063 24.14360262 64.7421875 20.63085938 C64.83864336 13.75402232 64.92314397 6.8770833 65 0 C66.47906892 -0.02689216 67.95827483 -0.04634621 69.4375 -0.0625 C70.26121094 -0.07410156 71.08492188 -0.08570312 71.93359375 -0.09765625 C74 0 74 0 75 1 C75.11473002 2.77168377 75.1596417 4.54793237 75.17700195 6.32324219 C75.19625481 8.03202545 75.19625481 8.03202545 75.21589661 9.77532959 C75.22328354 11.01993958 75.23067047 12.26454956 75.23828125 13.546875 C75.246353 14.82419495 75.25442474 16.10151489 75.26274109 17.4175415 C75.27779871 20.13464222 75.28761626 22.85171659 75.29516602 25.56884766 C75.3061238 29.01492077 75.34038218 32.46032885 75.38033772 35.90616989 C75.41315258 39.22387492 75.41731641 42.54152046 75.42578125 45.859375 C75.44328934 47.07969421 75.46079742 48.30001343 75.47883606 49.55731201 C75.44651818 62.55944444 72.49064727 73.27527 63.375 82.67578125 C54.8984098 90.58334109 45.17220956 92.48630983 33.90625 92.28515625 C23.78952787 91.54663553 15.77090061 87.1006445 8.875 79.8125 C2.42695531 72.3288229 -0.13384737 64.64827902 -0.11352539 54.83276367 C-0.11344986 53.61187546 -0.11337433 52.39098724 -0.11329651 51.13310242 C-0.10813522 49.82460831 -0.10297394 48.5161142 -0.09765625 47.16796875 C-0.09578961 45.80748039 -0.09436687 44.44699135 -0.09336853 43.08650208 C-0.08956275 39.51744713 -0.07974914 35.94843331 -0.06866455 32.37939453 C-0.05840863 28.73275305 -0.05386197 25.08610489 -0.04882812 21.43945312 C-0.03812503 14.29295199 -0.02107204 7.14647869 0 0 Z " fill="#000000" transform="translate(185,26)"/>
<path d="M0 0 C1.88700623 -0.00472824 1.88700623 -0.00472824 3.81213379 -0.009552 C5.19571975 -0.00776222 6.5793054 -0.00571127 7.96289062 -0.00341797 C9.37154151 -0.00409106 10.78019229 -0.00506112 12.18884277 -0.00631714 C15.14462385 -0.00779389 18.10037476 -0.0056403 21.05615234 -0.00097656 C24.85288647 0.00472073 28.64954991 0.0014416 32.44628143 -0.00454903 C35.35610491 -0.00815526 38.2659115 -0.00701577 41.17573547 -0.00442123 C42.57603463 -0.00375214 43.9763353 -0.00457979 45.37663269 -0.00690079 C47.33051526 -0.00942829 49.28440318 -0.0048958 51.23828125 0 C52.35223267 0.00079559 53.46618408 0.00159119 54.6138916 0.00241089 C57.11914062 0.12939453 57.11914062 0.12939453 58.11914062 1.12939453 C58.24414062 4.62939453 58.24414062 4.62939453 58.11914062 8.12939453 C57.11914062 9.12939453 57.11914062 9.12939453 54.61889648 9.24291992 C53.53487549 9.23768311 52.45085449 9.23244629 51.33398438 9.22705078 C50.16416016 9.22382812 48.99433594 9.22060547 47.7890625 9.21728516 C46.55736328 9.20890625 45.32566406 9.20052734 44.05664062 9.19189453 C42.20329102 9.18512695 42.20329102 9.18512695 40.3125 9.17822266 C37.24799946 9.16639061 34.18359341 9.14990626 31.11914062 9.12939453 C31.12136124 10.1271994 31.12358185 11.12500427 31.12586975 12.15304565 C31.14611253 21.54132111 31.16111826 30.92959215 31.1709528 40.31788445 C31.17617872 45.1448749 31.18327114 49.97184778 31.19458008 54.79882812 C31.20541922 59.45424701 31.21141965 64.10964897 31.21401787 68.7650795 C31.21587026 70.54414258 31.21948733 72.32320469 31.22487068 74.10226059 C31.23209472 76.5877256 31.23313099 79.07311999 31.23266602 81.55859375 C31.23626129 82.29946228 31.23985657 83.04033081 31.24356079 83.8036499 C31.23319279 88.90129021 31.23319279 88.90129021 30.11914062 91.12939453 C27.14914062 91.12939453 24.17914063 91.12939453 21.11914062 91.12939453 C21.11914062 64.06939453 21.11914062 37.00939453 21.11914062 9.12939453 C12.20914062 9.12939453 3.29914063 9.12939453 -5.88085938 9.12939453 C-6.88085938 8.12939453 -6.88085938 8.12939453 -7.00585938 4.62939453 C-6.80471858 -1.00254773 -5.13099598 0.0036646 0 0 Z " fill="#000000" transform="translate(384.880859375,25.87060546875)"/>
<path d="M0 0 C0.33 0.99 0.66 1.98 1 3 C-1.31 2.67 -3.62 2.34 -6 2 C-6.33 3.32 -6.66 4.64 -7 6 C-6.44570312 6.26554688 -5.89140625 6.53109375 -5.3203125 6.8046875 C-4.59585938 7.15789062 -3.87140625 7.51109375 -3.125 7.875 C-2.04605469 8.39707031 -2.04605469 8.39707031 -0.9453125 8.9296875 C1 10 1 10 3 12 C2.8125 14.5 2.8125 14.5 2 17 C-1.70415293 19.46943529 -3.62144505 19.46913089 -8 19 C-8.99 17.68 -9.98 16.36 -11 15 C-7.7 15.33 -4.4 15.66 -1 16 C-1 14.68 -1 13.36 -1 12 C-3.97 10.35 -6.94 8.7 -10 7 C-10 2 -10 2 -8.375 0.125 C-5.23335013 -1.36314994 -3.30955864 -0.82738966 0 0 Z " fill="#000000" transform="translate(235,148)"/>
<path d="M0 0 C3.96 0 7.92 0 12 0 C12.33 0.66 12.66 1.32 13 2 C11.02 2 9.04 2 7 2 C7 7.94 7 13.88 7 20 C6.34 20 5.68 20 5 20 C5 14.06 5 8.12 5 2 C3.02 2 1.04 2 -1 2 C-0.67 1.34 -0.34 0.68 0 0 Z " fill="#000000" transform="translate(262,147)"/>
<path d="M0 0 C2.3181362 1.89111111 3.66914015 3.33828031 5 6 C5.39447548 10.18144011 5.45035186 12.30946048 3.125 15.875 C0.21289342 18.78710658 -0.6002777 18.96068305 -4.8125 19.375 C-8.23041924 19.31907041 -8.97465048 19.0177986 -11.9375 16.9375 C-14.40599406 13.42176604 -15 11.28616677 -15 7 C-13.70501017 3.83446931 -12.36747781 2.30623151 -9.75 0.125 C-6.03630199 -1.39424009 -3.84345052 -1.04821378 0 0 Z M-11 4 C-13.2973659 6.80734473 -13.2973659 6.80734473 -12.875 9.9375 C-11.86028648 13.48899733 -11.01645212 14.88033094 -8 17 C-5.04308291 17.75015195 -5.04308291 17.75015195 -2 17 C1.36344489 14.51397551 2.80057749 13.08574477 3.5625 8.9375 C2.86895034 5.31562954 1.96102497 4.16074795 -1 2 C-5.31537763 0.34023937 -7.38962632 1.26782532 -11 4 Z " fill="#000000" transform="translate(312,148)"/>
<path d="M0 0 C8.15384615 0 8.15384615 0 13 3 C14.38125018 5.76250036 14.19079306 7.94731099 14 11 C13.34 11.66 12.68 12.32 12 13 C12.32326553 16.59679066 12.32326553 16.59679066 13 20 C12.34 20 11.68 20 11 20 C10.814375 19.360625 10.62875 18.72125 10.4375 18.0625 C9.05753944 15.57873787 9.05753944 15.57873787 5.375 15.25 C4.26125 15.1675 3.1475 15.085 2 15 C2 16.65 2 18.3 2 20 C1.34 20 0.68 20 0 20 C0 13.4 0 6.8 0 0 Z M2 2 C2 5.63 2 9.26 2 13 C6.6800086 13.39909856 6.6800086 13.39909856 10.9375 11.8125 C12.42028065 9.28305066 12.57552523 7.87762613 12 5 C8.38604363 2.00557901 6.87492343 2 2 2 Z " fill="#000000" transform="translate(343,147)"/>
<path d="M0 0 C1.65322266 0.01740234 1.65322266 0.01740234 3.33984375 0.03515625 C4.99693359 0.04869141 4.99693359 0.04869141 6.6875 0.0625 C7.54214844 0.07410156 8.39679688 0.08570313 9.27734375 0.09765625 C9.27734375 1.08765625 9.27734375 2.07765625 9.27734375 3.09765625 C5.64734375 3.09765625 2.01734375 3.09765625 -1.72265625 3.09765625 C-1.72265625 5.73765625 -1.72265625 8.37765625 -1.72265625 11.09765625 C1.57734375 11.09765625 4.87734375 11.09765625 8.27734375 11.09765625 C7.94734375 11.75765625 7.61734375 12.41765625 7.27734375 13.09765625 C4.30734375 13.09765625 1.33734375 13.09765625 -1.72265625 13.09765625 C-1.72265625 14.74765625 -1.72265625 16.39765625 -1.72265625 18.09765625 C2.23734375 18.09765625 6.19734375 18.09765625 10.27734375 18.09765625 C10.27734375 18.75765625 10.27734375 19.41765625 10.27734375 20.09765625 C5.65734375 20.09765625 1.03734375 20.09765625 -3.72265625 20.09765625 C-3.74949322 16.95176681 -3.76941527 13.80610354 -3.78515625 10.66015625 C-3.79353516 9.76232422 -3.80191406 8.86449219 -3.81054688 7.93945312 C-3.81376953 7.08544922 -3.81699219 6.23144531 -3.8203125 5.3515625 C-3.82816772 4.16542358 -3.82816772 4.16542358 -3.83618164 2.95532227 C-3.6507385 -0.07916552 -3.06063292 0.1097788 0 0 Z " fill="#000000" transform="translate(386.72265625,146.90234375)"/>
</svg>
